<svg xmlns="http://www.w3.org/2000/svg" xmlns:ns1="http://www.iki.fi/pav/software/textext/" width="436.5648" height="314.4178" viewBox="0 0 115.5078 83.1897"><defs><marker id="a" orient="auto" overflow="visible"><path fill-rule="evenodd" stroke="#000" stroke-linejoin="round" stroke-width=".375" d="M-5.2312-2.4202L1.3244-.0096-5.2312 2.401c1.0473-1.4232 1.0413-3.3704 0-4.8212z"/></marker><marker id="b" orient="auto" overflow="visible"><path fill-rule="evenodd" stroke="#000" stroke-linejoin="round" stroke-width=".375" d="M-5.2312-2.4202L1.3244-.0096-5.2312 2.401c1.0473-1.4232 1.0413-3.3704 0-4.8212z"/></marker></defs><g transform="translate(-24.6284 -16.9756)"><path fill="none" stroke="#000" stroke-width=".4307" marker-end="url(#a)" d="M31.5378 93.0734h100.1839"/><path fill="none" stroke="#000" stroke-width=".4317" marker-end="url(#b)" d="M38.4868 99.6654V26.601"/><circle cx="38.4785" cy="93.0817" r=".5246" stroke="#000" stroke-linecap="round" stroke-linejoin="round" stroke-width=".3695"/><path fill="none" stroke="#ff7f27" stroke-width=".2993" d="M38.732 82.8765h82.0314M38.7373 72.4656h82.0313M38.7309 61.9148h82.0313M38.7309 47.608h82.0313M38.7309 37.0526h82.0313"/><path fill="none" stroke="#ff7f27" stroke-width=".2646" d="M50.8357 92.8342V37.0828M80.227 92.8368V37.0854M65.2745 92.8373V37.0858M103.5028 92.8349V37.0834M120.6286 92.8318V37.0803"/><path d="M137.9447 92.2881c.055-.22.2613-1.0314.8664-1.0314.0412 0 .2613 0 .44.11-.2475.055-.4125.2613-.4125.4814 0 .1375.0962.3025.33.3025.1925 0 .4676-.1513.4676-.5088 0-.4538-.5088-.5776-.8114-.5776-.5088 0-.8113.4676-.9213.6601-.22-.5776-.6876-.66-.949-.66-.9075 0-1.4164 1.1276-1.4164 1.3476 0 .0963.0963.0963.11.0963.0688 0 .0963-.0275.11-.0963.3026-.9351.8802-1.1552 1.1827-1.1552.165 0 .4676.0826.4676.5914 0 .275-.1513.8526-.4676 2.0902-.1375.5364-.4538.9077-.8388.9077-.055 0-.2476 0-.44-.11.22-.055.4125-.2338.4125-.4814 0-.2338-.1926-.3025-.3163-.3025-.275 0-.4813.22-.4813.5088 0 .3988.4263.5776.8113.5776.5913 0 .9076-.6188.9214-.6601.11.3163.4263.66.9489.66.9076 0 1.4026-1.1276 1.4026-1.3476 0-.0963-.0687-.0963-.0962-.0963-.0825 0-.0963.0413-.1238.0963-.2888.9489-.8801 1.1552-1.1551 1.1552-.3438 0-.4814-.275-.4814-.5776 0-.1925.0413-.385.1376-.7701zm0 0" ns1:alignment="middle center" ns1:jacobian_sqrt=".3528" ns1:pdfconverter="pdf2svg" ns1:preamble="C:\\Users\\YanWQ\\AppData\\Roaming\\inkscape\\extensions\\textext\\default_packages.tex" ns1:scale="1" ns1:texconverter="pdflatex" ns1:text="$x$" ns1:version="0.9.1"/><path d="M40.8267 17.9904c.0396-.1188.0396-.132.0396-.198 0-.1452-.1188-.2244-.2508-.2244-.0792 0-.2112.0528-.2904.1716-.0132.0528-.0924.3036-.1188.462-.066.2112-.1188.4488-.1716.6732l-.3828 1.518c-.0264.1188-.396.7128-.9504.7128-.4224 0-.5148-.3696-.5148-.6864 0-.3828.1452-.9108.4224-1.65.132-.3432.1716-.4356.1716-.6072 0-.3696-.264-.6864-.6864-.6864-.8052 0-1.1088 1.2276-1.1088 1.2936 0 .0924.0792.0924.0924.0924.0924 0 .0924-.0264.132-.1584.2376-.792.5676-1.0428.858-1.0428.066 0 .2112 0 .2112.264 0 .2112-.0924.4356-.1452.594-.3432.8976-.4884 1.3728-.4884 1.7688 0 .7524.528 1.0032 1.0296 1.0032.33 0 .6072-.1452.8448-.3828-.1056.4356-.2112.858-.5412 1.3068-.2244.2772-.5412.528-.924.528-.1188 0-.5016-.0264-.6468-.3564.132 0 .2508 0 .3564-.1056.0924-.066.1716-.1848.1716-.3432 0-.264-.2244-.2904-.3036-.2904-.198 0-.4752.132-.4752.5412 0 .4224.3696.7392.8976.7392.858 0 1.7292-.7656 1.9668-1.716zm0 0" ns1:alignment="middle center" ns1:jacobian_sqrt=".3528" ns1:pdfconverter="pdf2svg" ns1:preamble="C:\\Users\\YanWQ\\AppData\\Roaming\\inkscape\\extensions\\textext\\default_packages.tex" ns1:scale="1" ns1:texconverter="pdflatex" ns1:text="$y$" ns1:version="0.9.1"/><g ns1:alignment="middle center" ns1:jacobian_sqrt=".3528" ns1:pdfconverter="pdf2svg" ns1:preamble="C:\\Users\\YanWQ\\AppData\\Roaming\\inkscape\\extensions\\textext\\default_packages.tex" ns1:scale="1" ns1:texconverter="pdflatex" ns1:text="$y_1$" ns1:version="0.9.1"><path d="M33.9826 81.722c.024-.072.024-.08.024-.12 0-.088-.072-.136-.152-.136-.048 0-.128.032-.176.104-.008.032-.056.184-.072.28-.0401.1281-.0721.2722-.1041.4082l-.2321.9203c-.016.072-.24.4321-.5762.4321-.256 0-.312-.224-.312-.416 0-.2322.088-.5523.256-1.0004.08-.208.104-.2641.104-.3681 0-.2241-.16-.4162-.4161-.4162-.4882 0-.6722.7443-.6722.7843 0 .056.048.056.056.056.056 0 .056-.016.08-.096.144-.4802.3441-.6322.5202-.6322.04 0 .128 0 .128.16 0 .128-.056.2641-.088.3601-.208.5442-.296.8323-.296 1.0724 0 .4561.32.6082.6241.6082.2 0 .3681-.088.5122-.2321-.064.264-.128.5202-.3281.7923-.136.168-.3281.32-.5602.32-.072 0-.3041-.016-.3921-.216.08 0 .152 0 .216-.064.056-.04.104-.112.104-.208 0-.1601-.136-.1762-.184-.1762-.12 0-.288.08-.288.3282 0 .256.224.4481.544.4481.5203 0 1.0484-.4641 1.1925-1.0403zm0 0M35.1961 82.1591c0-.096 0-.096-.104-.096-.232.224-.5522.224-.6962.224v.128c.08 0 .32 0 .5122-.096v1.8166c0 .12 0 .1681-.3522.1681h-.136v.128c.064 0 .5042-.016.6322-.016.112 0 .5602.016.6402.016v-.128h-.136c-.3602 0-.3602-.048-.3602-.168zm0 0"/></g><g ns1:alignment="middle center" ns1:jacobian_sqrt=".3528" ns1:pdfconverter="pdf2svg" ns1:preamble="C:\\Users\\YanWQ\\AppData\\Roaming\\inkscape\\extensions\\textext\\default_packages.tex" ns1:scale="1" ns1:texconverter="pdflatex" ns1:text="$y_2$" ns1:version="0.9.1"><path d="M33.9183 70.8345c.0234-.0701.0234-.0779.0234-.1169 0-.0857-.0701-.1324-.148-.1324-.0468 0-.1247.0311-.1715.1013-.0078.0311-.0545.1792-.0701.2727-.039.1247-.0702.265-.1013.3975l-.226.8961c-.0156.0702-.2338.4209-.5611.4209-.2494 0-.304-.2182-.304-.4053 0-.226.0858-.5377.2494-.974.078-.2027.1013-.2572.1013-.3586 0-.2182-.1558-.4052-.4052-.4052-.4754 0-.6546.7248-.6546.7637 0 .0546.0468.0546.0546.0546.0545 0 .0545-.0156.0779-.0935.1403-.4676.335-.6157.5065-.6157.039 0 .1247 0 .1247.1559 0 .1247-.0545.2571-.0857.3507-.2026.5299-.2884.8104-.2884 1.0442 0 .4442.3118.5923.6079.5923.1948 0 .3585-.0858.4987-.226-.0623.2571-.1246.5065-.3195.7715-.1324.1636-.3195.3117-.5455.3117-.0701 0-.2961-.0156-.3818-.2104.078 0 .148 0 .2104-.0624a.246.246 0 0 0 .1013-.2026c0-.1558-.1325-.1714-.1792-.1714-.117 0-.2806.0779-.2806.3195 0 .2493.2182.4364.53.4364.5065 0 1.0208-.452 1.161-1.0131zm0 0M35.6923 72.8421h-.1169c-.0078.078-.0467.2806-.0935.3117-.0234.0234-.2883.0234-.3429.0234H34.5c.3663-.3195.491-.4208.6936-.5845.2571-.2026.4987-.4208.4987-.748 0-.4209-.3663-.678-.8105-.678-.4286 0-.7247.3039-.7247.6234 0 .1714.148.1948.187.1948a.1824.1824 0 0 0 .1793-.187c0-.0624-.0234-.187-.2026-.187.109-.2416.3428-.3196.5065-.3196.3507 0 .53.2728.53.5533 0 .304-.2183.5377-.3274.6624l-.8338.8339c-.039.0311-.039.039-.039.1324h1.4339zm0 0"/></g><g ns1:alignment="middle center" ns1:jacobian_sqrt=".3528" ns1:pdfconverter="pdf2svg" ns1:preamble="C:\\Users\\YanWQ\\AppData\\Roaming\\inkscape\\extensions\\textext\\default_packages.tex" ns1:scale="1" ns1:texconverter="pdflatex" ns1:text="$y_3$" ns1:version="0.9.1"><path d="M33.8872 60.4727c.0233-.0702.0233-.078.0233-.117 0-.0856-.0701-.1324-.148-.1324-.0468 0-.1247.0312-.1715.1013-.0078.0312-.0545.1792-.0701.2728-.039.1246-.0701.265-.1013.3974l-.226.8962c-.0156.0701-.2338.4208-.561.4208-.2495 0-.304-.2182-.304-.4052 0-.226.0857-.5377.2494-.9741.0779-.2027.1013-.2572.1013-.3585 0-.2182-.1559-.4052-.4053-.4052-.4753 0-.6546.7247-.6546.7637 0 .0545.0468.0545.0546.0545.0545 0 .0545-.0156.078-.0935.1402-.4676.335-.6156.5064-.6156.039 0 .1247 0 .1247.1558 0 .1247-.0545.2572-.0857.3507-.2026.5299-.2883.8104-.2883 1.0442 0 .4442.3117.5923.6078.5923.1948 0 .3585-.0857.4988-.226-.0624.2572-.1247.5065-.3195.7715-.1325.1636-.3196.3117-.5455.3117-.0702 0-.2962-.0156-.3819-.2104.078 0 .148 0 .2104-.0623a.246.246 0 0 0 .1013-.2027c0-.1558-.1325-.1714-.1792-.1714-.117 0-.2806.078-.2806.3195 0 .2494.2182.4364.53.4364.5065 0 1.0208-.452 1.1611-1.013zm0 0M34.8585 61.9503c.2727 0 .4675.187.4675.5611 0 .4286-.2571.5611-.452.5611-.1402 0-.452-.039-.5922-.2494.1636 0 .2026-.1169.2026-.1948 0-.109-.0857-.187-.1948-.187-.0935 0-.1948.0623-.1948.2026 0 .3273.3584.5377.7793.5377.4831 0 .8182-.3273.8182-.6702 0-.2727-.2182-.5455-.6-.6234.3584-.1325.4909-.3897.4909-.6079 0-.2727-.3117-.4753-.7014-.4753-.3818 0-.678.187-.678.4675 0 .117.078.1793.1793.1793.1091 0 .1792-.078.1792-.1715 0-.1013-.0701-.1792-.1792-.187.1247-.148.3585-.187.491-.187.1558 0 .374.078.374.374 0 .1481-.0467.3118-.1403.413-.109.1325-.2104.1403-.3818.156-.0857.0077-.0935.0077-.1091.0077-.0078 0-.039.0078-.039.0468 0 .0467.0312.0467.0935.0467zm0 0"/></g><g ns1:alignment="middle center" ns1:jacobian_sqrt=".3528" ns1:pdfconverter="pdf2svg" ns1:preamble="C:\\Users\\YanWQ\\AppData\\Roaming\\inkscape\\extensions\\textext\\default_packages.tex" ns1:scale="1" ns1:texconverter="pdflatex" ns1:text="$y_{m-1}$" ns1:version="0.9.1"><path d="M27.3961 45.722c.0234-.0701.0234-.078.0234-.1169 0-.0857-.0701-.1325-.148-.1325-.0468 0-.1247.0312-.1715.1013-.0078.0312-.0546.1793-.0701.2728-.039.1247-.0702.265-.1013.3974l-.226.8962c-.0156.0702-.2338.4208-.5611.4208-.2494 0-.304-.2182-.304-.4052 0-.226.0858-.5377.2494-.9741.078-.2026.1013-.2572.1013-.3585 0-.2182-.1558-.4052-.4052-.4052-.4754 0-.6546.7247-.6546.7637 0 .0545.0468.0545.0546.0545.0545 0 .0545-.0155.0779-.0935.1403-.4675.335-.6156.5065-.6156.039 0 .1247 0 .1247.1558 0 .1247-.0545.2572-.0857.3507-.2026.53-.2884.8105-.2884 1.0443 0 .4442.3118.5922.6079.5922.1948 0 .3585-.0857.4987-.226-.0623.2572-.1247.5066-.3195.7715-.1325.1637-.3195.3118-.5455.3118-.0701 0-.2961-.0156-.3818-.2105.0779 0 .148 0 .2104-.0623a.246.246 0 0 0 .1013-.2026c0-.1559-.1325-.1715-.1792-.1715-.117 0-.2806.078-.2806.3196 0 .2493.2182.4364.53.4364.5065 0 1.0208-.452 1.161-1.0131zm0 0M28.9285 48.0803c-.0234.0701-.0545.187-.0545.2026 0 .078.0623.109.1169.109.0701 0 .1246-.0389.1402-.07.0156-.0312.0468-.1481.0624-.2183.0156-.0623.0545-.226.078-.3117.0155-.0779.0389-.1558.0545-.2338.039-.148.039-.1558.109-.265.1092-.1714.2884-.3662.5534-.3662.1948 0 .2104.1559.2104.2416 0 .2104-.1481.5923-.2104.7403-.0312.1013-.0468.1325-.0468.187 0 .187.148.2962.3273.2962.3507 0 .4987-.4754.4987-.53 0-.0467-.039-.0467-.0545-.0467-.0468 0-.0468.0234-.0624.0623-.0779.2806-.2337.4209-.3662.4209-.078 0-.0935-.0468-.0935-.1247 0-.078.0233-.1247.0857-.2806.039-.109.1792-.4753.1792-.6702 0-.0545 0-.2026-.1247-.3039-.0623-.039-.1636-.0935-.3273-.0935-.3117 0-.4987.2104-.6156.3507-.0234-.2961-.2728-.3507-.452-.3507-.2883 0-.4831.1792-.5845.3195-.0233-.2416-.226-.3195-.374-.3195s-.226.1091-.2728.187c-.0779.1325-.1246.3273-.1246.3507 0 .039.0467.039.0623.039.0468 0 .0468-.0078.0701-.1013.0546-.2026.1247-.374.2572-.374.0935 0 .1169.0778.1169.1714 0 .0623-.0312.1948-.0624.2883a8.1257 8.1257 0 0 0-.07.3117l-.117.4442c-.0078.0468-.0312.1325-.0312.1403 0 .078.0624.109.117.109.0623 0 .1168-.0389.1402-.07.0156-.0312.039-.1481.0624-.2183.0155-.0623.0545-.226.07-.3117.0235-.0779.0468-.1558.0624-.2338.039-.1402.0468-.1714.1481-.3117.0935-.1402.2572-.3195.5221-.3195.1948 0 .2026.1793.2026.2416 0 .0857-.0078.1325-.0623.3273zm0 0M33.5296 47.5737c.0545 0 .1402 0 .1402-.0779 0-.0935-.0857-.0935-.1402-.0935h-2.073c-.0545 0-.1402 0-.1402.0857s.078.0857.1403.0857zm0 0M35.2091 46.1476c0-.0935 0-.0935-.1013-.0935-.226.2182-.5377.2182-.678.2182v.1247c.078 0 .3118 0 .4988-.0935v1.769c0 .1169 0 .1636-.3429.1636h-.1325v.1247c.0624 0 .491-.0156.6157-.0156.109 0 .5455.0156.6234.0156v-.1247h-.1325c-.3507 0-.3507-.0467-.3507-.1636zm0 0"/></g><g ns1:alignment="middle center" ns1:jacobian_sqrt=".3528" ns1:pdfconverter="pdf2svg" ns1:preamble="C:\\Users\\YanWQ\\AppData\\Roaming\\inkscape\\extensions\\textext\\default_packages.tex" ns1:scale="1" ns1:texconverter="pdflatex" ns1:text="$y_m$" ns1:version="0.9.1"><path d="M32.3208 35.3452c.0234-.07.0234-.0779.0234-.1169 0-.0857-.0702-.1324-.148-.1324-.0469 0-.1248.0311-.1715.1013-.0078.0311-.0546.1792-.0702.2727-.039.1247-.0701.265-.1013.3975l-.226.8961c-.0156.0702-.2338.4209-.561.4209-.2494 0-.304-.2182-.304-.4053 0-.226.0857-.5377.2494-.974.078-.2027.1013-.2572.1013-.3586 0-.2182-.1559-.4052-.4052-.4052-.4754 0-.6546.7248-.6546.7637 0 .0546.0467.0546.0545.0546.0546 0 .0546-.0156.078-.0935.1402-.4676.335-.6157.5065-.6157.039 0 .1247 0 .1247.1559 0 .1247-.0546.2571-.0858.3507-.2026.5299-.2883.8104-.2883 1.0442 0 .4442.3117.5923.6079.5923.1948 0 .3584-.0858.4987-.226-.0623.2571-.1247.5065-.3195.7715-.1325.1636-.3195.3117-.5455.3117-.0701 0-.2961-.0156-.3819-.2104.078 0 .1481 0 .2104-.0624a.246.246 0 0 0 .1014-.2026c0-.1558-.1325-.1714-.1793-.1714-.1169 0-.2805.0779-.2805.3195 0 .2493.2182.4364.5299.4364.5065 0 1.0209-.452 1.1611-1.0131zm0 0M33.8532 37.7035c-.0234.0701-.0546.187-.0546.2026 0 .078.0624.1091.117.1091.07 0 .1246-.039.1402-.0701.0156-.0312.0468-.148.0623-.2182.0156-.0624.0546-.226.078-.3117.0156-.078.039-.1559.0545-.2338.039-.1481.039-.1559.1091-.265.1091-.1714.2884-.3663.5533-.3663.1948 0 .2104.1559.2104.2416 0 .2104-.148.5923-.2104.7403-.0312.1014-.0467.1325-.0467.187 0 .1871.148.2962.3273.2962.3506 0 .4987-.4754.4987-.53 0-.0467-.039-.0467-.0545-.0467-.0468 0-.0468.0234-.0624.0624-.078.2805-.2338.4208-.3663.4208-.0779 0-.0935-.0468-.0935-.1247 0-.078.0234-.1247.0858-.2805.039-.1091.1792-.4754.1792-.6702 0-.0546 0-.2026-.1247-.304-.0623-.039-.1636-.0935-.3273-.0935-.3117 0-.4987.2104-.6156.3507-.0234-.2961-.2728-.3507-.452-.3507-.2884 0-.4832.1793-.5845.3195-.0234-.2415-.226-.3195-.374-.3195-.1481 0-.226.1091-.2728.187-.078.1325-.1247.3274-.1247.3507 0 .039.0468.039.0624.039.0467 0 .0467-.0078.0701-.1013.0545-.2026.1247-.374.2572-.374.0935 0 .1169.0779.1169.1714 0 .0623-.0312.1948-.0624.2883a8.1257 8.1257 0 0 0-.0701.3117l-.117.4442c-.0077.0468-.031.1325-.031.1403 0 .078.0623.1091.1168.1091.0623 0 .1169-.039.1403-.0701.0156-.0312.039-.148.0623-.2182.0156-.0624.0546-.226.0702-.3117.0233-.078.0467-.1559.0623-.2338.039-.1403.0468-.1715.148-.3117.0936-.1403.2572-.3196.5222-.3196.1948 0 .2026.1793.2026.2416 0 .0857-.0078.1325-.0623.3273zm0 0"/></g><g ns1:alignment="middle center" ns1:jacobian_sqrt=".3528" ns1:pdfconverter="pdf2svg" ns1:preamble="C:\\Users\\YanWQ\\AppData\\Roaming\\inkscape\\extensions\\textext\\default_packages.tex" ns1:scale="1" ns1:texconverter="pdflatex" ns1:text="$x_1$" ns1:version="0.9.1"><path d="M50.316 96.0659c.0312-.1247.148-.5845.491-.5845.0234 0 .148 0 .2493.0624-.1402.0311-.2337.148-.2337.2727 0 .078.0545.1714.187.1714.109 0 .265-.0857.265-.2883 0-.2572-.2884-.3273-.4598-.3273-.2884 0-.4598.265-.5222.374-.1246-.3272-.3896-.374-.5377-.374-.5143 0-.8026.639-.8026.7637 0 .0546.0545.0546.0623.0546.039 0 .0546-.0156.0624-.0546.1714-.53.4987-.6546.6701-.6546.0936 0 .265.0468.265.3351 0 .1559-.0857.4832-.265 1.1845-.0779.304-.2571.5144-.4753.5144-.0312 0-.1403 0-.2494-.0624.1247-.0312.2338-.1325.2338-.2727 0-.1325-.1091-.1715-.1792-.1715-.1559 0-.2728.1247-.2728.2883 0 .226.2416.3274.4598.3274.335 0 .5143-.3507.5221-.3741.0624.1792.2416.374.5377.374.5143 0 .7949-.639.7949-.7637 0-.0545-.039-.0545-.0546-.0545-.0467 0-.0545.0234-.0701.0545-.1636.5378-.4987.6547-.6546.6547-.1948 0-.2727-.156-.2727-.3274 0-.109.0233-.2182.0779-.4364zm0 0M52.6571 96.1018c0-.0935 0-.0935-.1013-.0935-.226.2182-.5377.2182-.678.2182v.1247c.078 0 .3118 0 .4988-.0935v1.769c0 .1169 0 .1636-.3429.1636h-.1325v.1247c.0624 0 .491-.0156.6157-.0156.109 0 .5455.0156.6234.0156v-.1247h-.1325c-.3507 0-.3507-.0467-.3507-.1636zm0 0"/></g><g ns1:alignment="middle center" ns1:jacobian_sqrt=".3528" ns1:pdfconverter="pdf2svg" ns1:preamble="C:\\Users\\YanWQ\\AppData\\Roaming\\inkscape\\extensions\\textext\\default_packages.tex" ns1:scale="1" ns1:texconverter="pdflatex" ns1:text="$x_2$" ns1:version="0.9.1"><path d="M64.549 96.0659c.0311-.1247.148-.5845.491-.5845.0233 0 .148 0 .2493.0624-.1403.0311-.2338.148-.2338.2727 0 .078.0546.1714.187.1714.1091 0 .265-.0857.265-.2883 0-.2572-.2883-.3273-.4598-.3273-.2883 0-.4598.265-.5221.374-.1247-.3272-.3896-.374-.5377-.374-.5143 0-.8027.639-.8027.7637 0 .0546.0546.0546.0624.0546.039 0 .0545-.0156.0623-.0546.1714-.53.4988-.6546.6702-.6546.0935 0 .265.0468.265.3351 0 .1559-.0858.4832-.265 1.1845-.078.304-.2572.5144-.4754.5144-.0311 0-.1402 0-.2493-.0624.1246-.0312.2337-.1325.2337-.2727 0-.1325-.109-.1715-.1792-.1715-.1559 0-.2727.1247-.2727.2883 0 .226.2415.3274.4597.3274.3351 0 .5144-.3507.5222-.3741.0623.1792.2415.374.5377.374.5143 0 .7948-.639.7948-.7637 0-.0545-.039-.0545-.0545-.0545-.0468 0-.0546.0234-.0701.0545-.1637.5378-.4988.6547-.6546.6547-.1949 0-.2728-.156-.2728-.3274 0-.109.0234-.2182.078-.4364zm0 0M67.4823 97.6838h-.1169c-.0077.078-.0467.2805-.0935.3117-.0233.0234-.2883.0234-.3429.0234h-.639c.3663-.3195.491-.4208.6936-.5845.2572-.2026.4987-.4208.4987-.748 0-.4209-.3662-.678-.8104-.678-.4286 0-.7248.3039-.7248.6234 0 .1714.1481.1948.187.1948a.1824.1824 0 0 0 .1793-.187c0-.0624-.0234-.187-.2026-.187.109-.2417.3429-.3196.5065-.3196.3507 0 .53.2728.53.5533 0 .304-.2183.5377-.3274.6624l-.8338.8338c-.039.0312-.039.039-.039.1325h1.434zm0 0"/></g><g ns1:alignment="middle center" ns1:jacobian_sqrt=".3528" ns1:pdfconverter="pdf2svg" ns1:preamble="C:\\Users\\YanWQ\\AppData\\Roaming\\inkscape\\extensions\\textext\\default_packages.tex" ns1:scale="1" ns1:texconverter="pdflatex" ns1:text="$x_3$" ns1:version="0.9.1"><path d="M79.1516 96.0659c.0312-.1247.148-.5845.491-.5845.0233 0 .148 0 .2493.0624-.1402.0311-.2337.148-.2337.2727 0 .078.0545.1714.187.1714.109 0 .265-.0857.265-.2883 0-.2572-.2884-.3273-.4598-.3273-.2884 0-.4598.265-.5222.374-.1246-.3272-.3896-.374-.5377-.374-.5143 0-.8026.639-.8026.7637 0 .0546.0545.0546.0623.0546.039 0 .0546-.0156.0624-.0546.1714-.53.4987-.6546.6701-.6546.0936 0 .265.0468.265.3351 0 .1559-.0857.4832-.265 1.1845-.0779.304-.2571.5144-.4753.5144-.0312 0-.1403 0-.2494-.0624.1247-.0312.2338-.1325.2338-.2727 0-.1325-.1091-.1715-.1792-.1715-.156 0-.2728.1247-.2728.2883 0 .226.2416.3274.4598.3274.335 0 .5143-.3507.5221-.3741.0623.1792.2416.374.5377.374.5143 0 .7949-.639.7949-.7637 0-.0545-.039-.0545-.0546-.0545-.0467 0-.0545.0234-.0701.0545-.1637.5378-.4987.6547-.6546.6547-.1948 0-.2728-.156-.2728-.3274 0-.109.0234-.2182.078-.4364zm0 0M81.2823 97.1539c.2728 0 .4676.187.4676.561 0 .4287-.2572.5612-.452.5612-.1403 0-.452-.039-.5923-.2494.1637 0 .2027-.117.2027-.1948 0-.1091-.0858-.187-.1949-.187-.0935 0-.1948.0623-.1948.2026 0 .3273.3585.5377.7793.5377.4832 0 .8183-.3273.8183-.6702 0-.2728-.2182-.5455-.6001-.6235.3585-.1324.491-.3896.491-.6078 0-.2728-.3118-.4754-.7014-.4754-.3819 0-.678.187-.678.4676 0 .1169.078.1792.1793.1792.109 0 .1792-.0779.1792-.1714 0-.1013-.0701-.1792-.1792-.187.1246-.1481.3584-.187.4909-.187.1559 0 .374.0779.374.374 0 .148-.0467.3117-.1402.413-.1091.1325-.2104.1403-.3819.1559-.0857.0078-.0935.0078-.109.0078-.0079 0-.039.0078-.039.0467 0 .0468.0311.0468.0935.0468zm0 0"/></g><g ns1:alignment="middle center" ns1:jacobian_sqrt=".3528" ns1:pdfconverter="pdf2svg" ns1:preamble="C:\\Users\\YanWQ\\AppData\\Roaming\\inkscape\\extensions\\textext\\default_packages.tex" ns1:scale="1" ns1:texconverter="pdflatex" ns1:text="$x_{n-1}$" ns1:version="0.9.1"><path d="M99.7902 96.0659c.0312-.1247.1481-.5845.491-.5845.0234 0 .148 0 .2494.0624-.1403.0311-.2338.148-.2338.2727 0 .078.0545.1714.187.1714.1091 0 .265-.0857.265-.2883 0-.2572-.2884-.3273-.4598-.3273-.2884 0-.4598.265-.5221.374-.1247-.3272-.3897-.374-.5378-.374-.5143 0-.8026.639-.8026.7637 0 .0546.0545.0546.0623.0546.039 0 .0546-.0156.0624-.0546.1714-.53.4987-.6546.6702-.6546.0935 0 .265.0468.265.3351 0 .1559-.0858.4832-.265 1.1845-.078.304-.2572.5144-.4754.5144-.0312 0-.1403 0-.2494-.0624.1247-.0312.2338-.1325.2338-.2727 0-.1325-.1091-.1715-.1792-.1715-.1559 0-.2728.1247-.2728.2883 0 .226.2416.3274.4598.3274.335 0 .5143-.3507.5221-.3741.0624.1792.2416.374.5377.374.5144 0 .7949-.639.7949-.7637 0-.0545-.039-.0545-.0545-.0545-.0468 0-.0546.0234-.0702.0545-.1636.5378-.4987.6547-.6546.6547-.1948 0-.2727-.156-.2727-.3274 0-.109.0233-.2182.0779-.4364zm0 0M101.391 98.0968c-.0078.0468-.0312.1325-.0312.1403 0 .078.0624.1091.117.1091.0623 0 .1168-.039.1402-.0701.0156-.0312.039-.1481.0624-.2182.0155-.0624.0545-.226.07-.3118.0235-.0779.0468-.1558.0624-.2337.039-.1403.0468-.1715.1481-.3118.0935-.1402.2572-.3195.5221-.3195.1948 0 .2026.1793.2026.2416 0 .2104-.148.5923-.2026.7403-.039.1013-.0545.1325-.0545.187 0 .1871.148.2962.3273.2962.3507 0 .4987-.4754.4987-.53 0-.0467-.039-.0467-.0545-.0467-.0468 0-.0468.0234-.0624.0624-.078.2805-.2338.4208-.3662.4208-.078 0-.0936-.0468-.0936-.1247 0-.078.0234-.1247.0858-.2805.039-.1091.1792-.4754.1792-.6702 0-.3351-.265-.3975-.452-.3975-.2883 0-.4831.1793-.5845.3195-.0233-.2415-.226-.3195-.374-.3195s-.226.1091-.2728.187c-.0779.1325-.1246.3274-.1246.3507 0 .039.0467.039.0623.039.0468 0 .0468-.0078.0701-.1013.0546-.2026.1247-.374.2572-.374.0935 0 .1169.0779.1169.1714 0 .0623-.0312.1948-.0624.2883a8.1257 8.1257 0 0 0-.07.3117zm0 0M106.0138 97.528c.0545 0 .1402 0 .1402-.078 0-.0935-.0857-.0935-.1402-.0935h-2.073c-.0545 0-.1402 0-.1402.0857s.0779.0857.1402.0857zm0 0M107.6933 96.1018c0-.0935 0-.0935-.1013-.0935-.226.2182-.5377.2182-.678.2182v.1247c.078 0 .3118 0 .4988-.0935v1.769c0 .1169 0 .1636-.3429.1636h-.1325v.1247c.0624 0 .491-.0156.6157-.0156.109 0 .5455.0156.6234.0156v-.1247h-.1325c-.3507 0-.3507-.0467-.3507-.1636zm0 0"/></g><g ns1:alignment="middle center" ns1:jacobian_sqrt=".3528" ns1:pdfconverter="pdf2svg" ns1:preamble="C:\\Users\\YanWQ\\AppData\\Roaming\\inkscape\\extensions\\textext\\default_packages.tex" ns1:scale="1" ns1:texconverter="pdflatex" ns1:text="$x_n$" ns1:version="0.9.1"><path d="M119.8222 96.0659c.0311-.1247.148-.5845.491-.5845.0233 0 .148 0 .2493.0624-.1403.0311-.2338.148-.2338.2727 0 .078.0546.1714.187.1714.1091 0 .265-.0857.265-.2883 0-.2572-.2883-.3273-.4598-.3273-.2883 0-.4598.265-.5221.374-.1247-.3272-.3897-.374-.5377-.374-.5143 0-.8027.639-.8027.7637 0 .0546.0546.0546.0624.0546.039 0 .0545-.0156.0623-.0546.1714-.53.4987-.6546.6702-.6546.0935 0 .265.0468.265.3351 0 .1559-.0858.4832-.265 1.1845-.078.304-.2572.5144-.4754.5144-.0311 0-.1402 0-.2493-.0624.1246-.0312.2337-.1325.2337-.2727 0-.1325-.109-.1715-.1792-.1715-.1559 0-.2727.1247-.2727.2883 0 .226.2415.3274.4597.3274.3351 0 .5144-.3507.5222-.3741.0623.1792.2415.374.5377.374.5143 0 .7948-.639.7948-.7637 0-.0545-.039-.0545-.0545-.0545-.0468 0-.0546.0234-.0701.0545-.1637.5378-.4988.6547-.6547.6547-.1948 0-.2727-.156-.2727-.3274 0-.109.0234-.2182.078-.4364zm0 0M121.423 98.0968c-.0078.0468-.0312.1325-.0312.1403 0 .078.0623.1091.1169.1091.0623 0 .1169-.039.1402-.0701.0156-.0312.039-.1481.0624-.2182.0156-.0624.0545-.226.0701-.3118.0234-.0779.0468-.1558.0624-.2337.039-.1403.0467-.1715.148-.3118.0935-.1402.2572-.3195.5222-.3195.1948 0 .2026.1793.2026.2416 0 .2104-.148.5923-.2026.7403-.039.1013-.0546.1325-.0546.187 0 .1871.148.2962.3273.2962.3507 0 .4988-.4754.4988-.53 0-.0467-.039-.0467-.0546-.0467-.0468 0-.0468.0234-.0623.0624-.078.2805-.2338.4208-.3663.4208-.078 0-.0935-.0468-.0935-.1247 0-.078.0234-.1247.0857-.2805.039-.1091.1792-.4754.1792-.6702 0-.3351-.265-.3975-.452-.3975-.2883 0-.4831.1793-.5844.3195-.0234-.2415-.226-.3195-.374-.3195-.1481 0-.226.1091-.2728.187-.078.1325-.1247.3274-.1247.3507 0 .039.0467.039.0623.039.0468 0 .0468-.0078.0702-.1013.0545-.2026.1247-.374.2571-.374.0935 0 .117.0779.117.1714 0 .0623-.0312.1948-.0624.2883a8.1257 8.1257 0 0 0-.0702.3117zm0 0"/></g><g ns1:alignment="middle center" ns1:jacobian_sqrt=".3528" ns1:pdfconverter="pdf2svg" ns1:preamble="C:\\Users\\YanWQ\\AppData\\Roaming\\inkscape\\extensions\\textext\\default_packages.tex" ns1:scale="1" ns1:texconverter="pdflatex" ns1:text="$(w,\\,h)$" ns1:version="0.9.1"><path d="M121.8205 35.9943c0-.0156 0-.0234-.0857-.1091-.6156-.6235-.7793-1.5664-.7793-2.3301 0-.865.187-1.73.8027-2.3457.0623-.0623.0623-.0701.0623-.0857 0-.039-.0156-.0545-.0467-.0545-.0546 0-.4988.3428-.795.974-.2493.5456-.3116 1.0989-.3116 1.5119 0 .3896.0545.9897.3273 1.5586.3039.6078.7247.9351.7793.9351.0311 0 .0467-.0156.0467-.0545zm0 0M124.4078 33.1187c.0233-.1091.0701-.2961.0701-.3273 0-.0857-.0701-.1325-.1403-.1325-.0623 0-.148.039-.187.1403-.0156.0312-.2494.9819-.2805 1.1144-.039.148-.0468.2338-.0468.3273 0 .0545 0 .0623.0078.0857-.117.265-.265.4208-.4598.4208-.3974 0-.3974-.3663-.3974-.452 0-.1558.0233-.3507.2571-.9663.0546-.148.0858-.2182.0858-.3195 0-.2182-.1637-.4052-.4053-.4052-.4753 0-.6546.7247-.6546.7637 0 .0545.0468.0545.0546.0545.0545 0 .0545-.0156.0779-.0935.1403-.4598.3273-.6156.5065-.6156.0468 0 .1247.0078.1247.1636 0 .1247-.0545.265-.0935.3507-.2182.5845-.2727.8105-.2727 1.0053 0 .452.3273.6234.7013.6234.0857 0 .3195 0 .5144-.3507.1324.3195.4753.3507.6234.3507.374 0 .5922-.3117.7247-.6078.1637-.3897.3273-1.0599.3273-1.2937 0-.2727-.1325-.3506-.2182-.3506-.1247 0-.2494.1324-.2494.2415 0 .0624.0312.0936.0702.1325.0545.0546.1792.1793.1792.4208 0 .1715-.1403.6546-.2727.9118-.1247.265-.304.4364-.5455.4364-.2338 0-.3663-.148-.3663-.4364 0-.1325.0312-.2883.0546-.3585zm0 0M126.8133 34.7942c0-.3273-.1247-.5222-.3196-.5222-.1636 0-.265.1247-.265.265 0 .1325.1014.265.265.265a.2896.2896 0 0 0 .1715-.0624c.0156-.0156.0234-.0156.0234-.0156.0078 0 .0078 0 .0078.0702 0 .374-.1715.6701-.3351.8338-.0546.0545-.0546.0623-.0546.078 0 .0389.0234.0545.0468.0545.0545 0 .4598-.3819.4598-.9663zm0 0M130.2612 31.4043s0-.0546-.0623-.0546c-.117 0-.4754.039-.6079.0546-.039 0-.0935.0077-.0935.0935 0 .0623.0468.0623.1169.0623.2416 0 .2494.0312.2494.0857l-.0156.1013-.717 2.86c-.0233.0702-.0233.078-.0233.1091 0 .117.1013.1403.148.1403.078 0 .1559-.0623.1793-.1325l.0935-.374.109-.4442c.0313-.117.0624-.226.0858-.3351.0078-.0312.0546-.1948.0546-.226.0155-.0468.1714-.3195.3428-.4598.1091-.078.2572-.1714.4754-.1714.2104 0 .265.1714.265.3506 0 .265-.187.8105-.304 1.1144-.039.1091-.0701.1715-.0701.2728 0 .2338.1792.4052.413.4052.4676 0 .6468-.7247.6468-.7637 0-.0545-.039-.0545-.0545-.0545-.0546 0-.0546.0155-.078.0935-.07.265-.2337.6156-.5065.6156-.0857 0-.1169-.0468-.1169-.1636 0-.1247.039-.2416.0857-.3507.078-.2182.304-.8105.304-1.0988 0-.3195-.1949-.53-.569-.53-.3116 0-.5532.156-.7402.382zm0 0M133.1326 33.555c0-.3818-.0545-.9818-.3273-1.5507-.2961-.6078-.7247-.9351-.7715-.9351a.0533.0533 0 0 0-.0545.0545c0 .0156 0 .0234.0935.117.491.4909.7715 1.278.7715 2.3144 0 .8572-.1793 1.73-.7949 2.3534-.0701.0624-.0701.0702-.0701.0858 0 .0311.0233.0545.0545.0545.0468 0 .4988-.3429.787-.9741.2573-.5455.3118-1.0988.3118-1.5196zm0 0"/></g><g ns1:alignment="middle center" ns1:jacobian_sqrt=".3528" ns1:pdfconverter="pdf2svg" ns1:preamble="C:\\Users\\YanWQ\\AppData\\Roaming\\inkscape\\extensions\\textext\\default_packages.tex" ns1:scale="1" ns1:texconverter="pdflatex" ns1:text="$\\vdots$" ns1:version="0.9.1"><path d="M34.0474 52.5411c0-.1458-.1215-.2754-.2673-.2754-.154 0-.2755.1296-.2755.2754 0 .154.1215.2755.2755.2755.1458 0 .2673-.1216.2673-.2755zm0 0M34.0474 54.6073c0-.1459-.1215-.2755-.2673-.2755-.154 0-.2755.1296-.2755.2755 0 .1539.1215.2754.2755.2754.1458 0 .2673-.1215.2673-.2754zm0 0M34.0474 56.6734c0-.1458-.1215-.2754-.2673-.2754-.154 0-.2755.1296-.2755.2754 0 .154.1215.2755.2755.2755.1458 0 .2673-.1216.2673-.2755zm0 0"/></g><g ns1:alignment="middle center" ns1:jacobian_sqrt=".3528" ns1:pdfconverter="pdf2svg" ns1:preamble="C:\\Users\\YanWQ\\AppData\\Roaming\\inkscape\\extensions\\textext\\default_packages.tex" ns1:scale="1" ns1:texconverter="pdflatex" ns1:text="$\\cdots$" ns1:version="0.9.1"><path d="M88.4063 96.7174c0-.1459-.1215-.2674-.2674-.2674-.1539 0-.2754.1215-.2754.2674 0 .1539.1215.2754.2754.2754.1459 0 .2674-.1215.2674-.2754zm0 0M90.7039 96.7174c0-.1459-.1216-.2674-.2674-.2674-.154 0-.2754.1215-.2754.2674 0 .1539.1215.2754.2754.2754.1458 0 .2674-.1215.2674-.2754zm0 0M92.9963 96.7174c0-.1459-.1215-.2674-.2674-.2674-.1539 0-.2754.1215-.2754.2674 0 .1539.1215.2754.2754.2754.1459 0 .2674-.1215.2674-.2754zm0 0"/></g></g></svg>